# xmcd CD database file
#
# Track frame offsets:
#	150
#	16668
#	33559
#	52115
#	63510
#	87256
#	107027
#	124905
#	143236
#	164536
#	188177
#	207414
#	233014
#
# Disc length: 3376 seconds
#
# Revision: 2
# Processed by: cddbd v1.5.2PL0 Copyright (c) Steve Scherf et al.
# Submitted via: CDex 1.70beta2
#
DISCID=b70d2e0d
DTITLE=筋肉少女帯 - シーズン２
DYEAR=2009
DGENRE=Heavy Metal
TTITLE0=心の折れたエンジェル
TTITLE1=ドナドナ
TTITLE2=踊る赤ちゃん人間
TTITLE3=人間嫌いの歌
TTITLE4=世界中のラブソングが君を
TTITLE5=ロシアンルーレット・マイライフ
TTITLE6=プライド・オブ・アンダーグラウンド
TTITLE7=蓮華畑
TTITLE8=ノーマン・ベイツ'09
TTITLE9=1000年の監視者
TTITLE10=へそ天エリザベスカラー
TTITLE11=ゴッドアングル Part2
TTITLE12=ツアーファイナル
EXTD=YEAR: 2009
EXTT0=
EXTT1=
EXTT2=
EXTT3=
EXTT4=
EXTT5=
EXTT6=
EXTT7=
EXTT8=
EXTT9=
EXTT10=
EXTT11=
EXTT12=
PLAYORDER=
